<svg xmlns="http://www.w3.org/2000/svg" xmlns:xlink="http://www.w3.org/1999/xlink" width="500" zoomAndPan="magnify" viewBox="0 0 375 374.999991" height="500" preserveAspectRatio="xMidYMid meet" version="1.0"><defs><g/></defs><path stroke-linecap="butt" transform="matrix(0.75, 0, 0, 0.75, 91.066859, 208.021628)" fill="none" stroke-linejoin="miter" d="M -0.000603027 6.002413 L 148.692115 6.002413 " stroke="#ffffff" stroke-width="12" stroke-opacity="1" stroke-miterlimit="4"/><g fill="#ffffff" fill-opacity="1"><g transform="translate(91.066859, 195.260788)"><g><path d="M 30.609375 -18.375 C 32.617188 -17.664062 34.191406 -16.566406 35.328125 -15.078125 C 36.472656 -13.585938 37.046875 -11.785156 37.046875 -9.671875 C 37.046875 -6.578125 35.804688 -4.191406 33.328125 -2.515625 C 30.847656 -0.835938 27.253906 0 22.546875 0 L 3.53125 0 L 3.53125 -35.234375 L 21.546875 -35.234375 C 26.046875 -35.234375 29.46875 -34.398438 31.8125 -32.734375 C 34.164062 -31.078125 35.34375 -28.84375 35.34375 -26.03125 C 35.34375 -24.351562 34.929688 -22.847656 34.109375 -21.515625 C 33.285156 -20.191406 32.117188 -19.144531 30.609375 -18.375 Z M 13.390625 -28.046875 L 13.390625 -21.25 L 20.234375 -21.25 C 23.585938 -21.25 25.265625 -22.390625 25.265625 -24.671875 C 25.265625 -26.921875 23.585938 -28.046875 20.234375 -28.046875 Z M 21.75 -7.203125 C 25.238281 -7.203125 26.984375 -8.394531 26.984375 -10.78125 C 26.984375 -13.15625 25.238281 -14.34375 21.75 -14.34375 L 13.390625 -14.34375 L 13.390625 -7.203125 Z M 21.75 -7.203125 "/></g></g></g><g fill="#ffffff" fill-opacity="1"><g transform="translate(134.161492, 195.260788)"><g><path d="M 22.40625 -12.640625 L 22.40625 0 L 12.4375 0 L 12.4375 -12.78125 L -1 -35.234375 L 9.515625 -35.234375 L 17.875 -21.25 L 26.234375 -35.234375 L 35.890625 -35.234375 Z M 22.40625 -12.640625 "/></g></g></g><g fill="#ffffff" fill-opacity="1"><g transform="translate(173.429999, 195.260788)"><g><path d="M 11.03125 -27.34375 L 0.203125 -27.34375 L 0.203125 -35.234375 L 31.765625 -35.234375 L 31.765625 -27.34375 L 21 -27.34375 L 21 0 L 11.03125 0 Z M 11.03125 -27.34375 "/></g></g></g><g fill="#ffffff" fill-opacity="1"><g transform="translate(209.778555, 195.260788)"><g><path d="M 31.8125 -7.703125 L 31.8125 0 L 3.53125 0 L 3.53125 -35.234375 L 31.15625 -35.234375 L 31.15625 -27.53125 L 13.390625 -27.53125 L 13.390625 -21.59375 L 29.046875 -21.59375 L 29.046875 -14.140625 L 13.390625 -14.140625 L 13.390625 -7.703125 Z M 31.8125 -7.703125 "/></g></g></g><g fill="#ffffff" fill-opacity="1"><g transform="translate(208.34378, 216.177348)"><g><path d="M 7.875 -7.796875 L 7.875 0 L 6.765625 0 L 6.765625 -3.46875 L 2.28125 -3.46875 L 2.28125 0 L 1.171875 0 L 1.171875 -7.796875 L 2.28125 -7.796875 L 2.28125 -4.4375 L 6.765625 -4.4375 L 6.765625 -7.796875 Z M 7.875 -7.796875 "/></g></g></g><g fill="#ffffff" fill-opacity="1"><g transform="translate(220.157262, 216.177348)"><g><path d="M 4.6875 0.09375 C 3.90625 0.09375 3.195312 -0.078125 2.5625 -0.421875 C 1.925781 -0.773438 1.425781 -1.253906 1.0625 -1.859375 C 0.707031 -2.472656 0.53125 -3.15625 0.53125 -3.90625 C 0.53125 -4.65625 0.707031 -5.332031 1.0625 -5.9375 C 1.425781 -6.539062 1.925781 -7.015625 2.5625 -7.359375 C 3.195312 -7.710938 3.90625 -7.890625 4.6875 -7.890625 C 5.46875 -7.890625 6.171875 -7.710938 6.796875 -7.359375 C 7.429688 -7.015625 7.925781 -6.539062 8.28125 -5.9375 C 8.644531 -5.332031 8.828125 -4.65625 8.828125 -3.90625 C 8.828125 -3.144531 8.644531 -2.460938 8.28125 -1.859375 C 7.925781 -1.253906 7.429688 -0.773438 6.796875 -0.421875 C 6.171875 -0.078125 5.46875 0.09375 4.6875 0.09375 Z M 4.6875 -0.90625 C 5.257812 -0.90625 5.773438 -1.035156 6.234375 -1.296875 C 6.691406 -1.554688 7.050781 -1.910156 7.3125 -2.359375 C 7.570312 -2.816406 7.703125 -3.332031 7.703125 -3.90625 C 7.703125 -4.46875 7.570312 -4.972656 7.3125 -5.421875 C 7.050781 -5.878906 6.691406 -6.238281 6.234375 -6.5 C 5.773438 -6.757812 5.257812 -6.890625 4.6875 -6.890625 C 4.113281 -6.890625 3.59375 -6.757812 3.125 -6.5 C 2.664062 -6.238281 2.304688 -5.878906 2.046875 -5.421875 C 1.785156 -4.972656 1.65625 -4.46875 1.65625 -3.90625 C 1.65625 -3.332031 1.785156 -2.816406 2.046875 -2.359375 C 2.304688 -1.910156 2.664062 -1.554688 3.125 -1.296875 C 3.59375 -1.035156 4.113281 -0.90625 4.6875 -0.90625 Z M 4.6875 -0.90625 "/></g></g></g><g fill="#ffffff" fill-opacity="1"><g transform="translate(232.282801, 216.177348)"><g><path d="M 6.390625 0 L 4.703125 -2.390625 C 4.492188 -2.378906 4.332031 -2.375 4.21875 -2.375 L 2.28125 -2.375 L 2.28125 0 L 1.171875 0 L 1.171875 -7.796875 L 4.21875 -7.796875 C 5.21875 -7.796875 6.007812 -7.550781 6.59375 -7.0625 C 7.175781 -6.582031 7.46875 -5.921875 7.46875 -5.078125 C 7.46875 -4.472656 7.316406 -3.957031 7.015625 -3.53125 C 6.722656 -3.113281 6.300781 -2.8125 5.75 -2.625 L 7.59375 0 Z M 4.171875 -3.3125 C 4.878906 -3.3125 5.414062 -3.460938 5.78125 -3.765625 C 6.15625 -4.078125 6.34375 -4.515625 6.34375 -5.078125 C 6.34375 -5.640625 6.15625 -6.070312 5.78125 -6.375 C 5.414062 -6.675781 4.878906 -6.828125 4.171875 -6.828125 L 2.28125 -6.828125 L 2.28125 -3.3125 Z M 4.171875 -3.3125 "/></g></g></g><g fill="#ffffff" fill-opacity="1"><g transform="translate(243.148997, 216.177348)"><g><path d="M 1.171875 -7.796875 L 2.28125 -7.796875 L 2.28125 0 L 1.171875 0 Z M 1.171875 -7.796875 "/></g></g></g><g fill="#ffffff" fill-opacity="1"><g transform="translate(249.367911, 216.177348)"><g><path d="M 7 -0.96875 L 7 0 L 0.484375 0 L 0.484375 -0.75 L 5.375 -6.828125 L 0.5625 -6.828125 L 0.5625 -7.796875 L 6.84375 -7.796875 L 6.84375 -7.046875 L 1.96875 -0.96875 Z M 7 -0.96875 "/></g></g></g><g fill="#ffffff" fill-opacity="1"><g transform="translate(259.453989, 216.177348)"><g><path d="M 4.6875 0.09375 C 3.90625 0.09375 3.195312 -0.078125 2.5625 -0.421875 C 1.925781 -0.773438 1.425781 -1.253906 1.0625 -1.859375 C 0.707031 -2.472656 0.53125 -3.15625 0.53125 -3.90625 C 0.53125 -4.65625 0.707031 -5.332031 1.0625 -5.9375 C 1.425781 -6.539062 1.925781 -7.015625 2.5625 -7.359375 C 3.195312 -7.710938 3.90625 -7.890625 4.6875 -7.890625 C 5.46875 -7.890625 6.171875 -7.710938 6.796875 -7.359375 C 7.429688 -7.015625 7.925781 -6.539062 8.28125 -5.9375 C 8.644531 -5.332031 8.828125 -4.65625 8.828125 -3.90625 C 8.828125 -3.144531 8.644531 -2.460938 8.28125 -1.859375 C 7.925781 -1.253906 7.429688 -0.773438 6.796875 -0.421875 C 6.171875 -0.078125 5.46875 0.09375 4.6875 0.09375 Z M 4.6875 -0.90625 C 5.257812 -0.90625 5.773438 -1.035156 6.234375 -1.296875 C 6.691406 -1.554688 7.050781 -1.910156 7.3125 -2.359375 C 7.570312 -2.816406 7.703125 -3.332031 7.703125 -3.90625 C 7.703125 -4.46875 7.570312 -4.972656 7.3125 -5.421875 C 7.050781 -5.878906 6.691406 -6.238281 6.234375 -6.5 C 5.773438 -6.757812 5.257812 -6.890625 4.6875 -6.890625 C 4.113281 -6.890625 3.59375 -6.757812 3.125 -6.5 C 2.664062 -6.238281 2.304688 -5.878906 2.046875 -5.421875 C 1.785156 -4.972656 1.65625 -4.46875 1.65625 -3.90625 C 1.65625 -3.332031 1.785156 -2.816406 2.046875 -2.359375 C 2.304688 -1.910156 2.664062 -1.554688 3.125 -1.296875 C 3.59375 -1.035156 4.113281 -0.90625 4.6875 -0.90625 Z M 4.6875 -0.90625 "/></g></g></g><g fill="#ffffff" fill-opacity="1"><g transform="translate(271.579529, 216.177348)"><g><path d="M 7.875 -7.796875 L 7.875 0 L 6.96875 0 L 2.28125 -5.8125 L 2.28125 0 L 1.171875 0 L 1.171875 -7.796875 L 2.078125 -7.796875 L 6.765625 -1.984375 L 6.765625 -7.796875 Z M 7.875 -7.796875 "/></g></g></g></svg>